<?xml version="1.0" standalone="no"?><!DOCTYPE svg PUBLIC "-//W3C//DTD SVG 1.1//EN" "http://www.w3.org/Graphics/SVG/1.1/DTD/svg11.dtd"><svg t="1770105972642" class="icon" viewBox="0 0 1024 1024" version="1.1" xmlns="http://www.w3.org/2000/svg" p-id="6108" xmlns:xlink="http://www.w3.org/1999/xlink" width="128" height="128"><path d="M490.666667 459.498667c85.76 0 155.904-70.165333 155.904-155.904 0-85.76-70.165333-155.904-155.904-155.904-85.76 0-155.904 70.165333-155.904 155.904 0 85.76 70.165333 155.904 155.904 155.904z m-18.709334 149.653333c-7.786667-6.229333-12.48-14.037333-12.48-24.96 0-17.130667 14.037333-31.146667 31.189334-31.146667 17.152 0 31.189333 14.016 31.189333 31.146667 0 10.922667-4.693333 18.730667-12.48 24.96l42.090667 148.096c3.114667 10.922667 0 21.824-7.786667 29.632l-42.090667 42.090667a15.061333 15.061333 0 0 1-21.845333 0l-42.090667-42.090667a29.696 29.696 0 0 1-7.786666-29.632l42.090666-148.096z m-116.906666-134.08c-49.92-40.533333-82.645333-101.333333-82.645334-171.477333C272.426667 183.552 370.624 85.333333 490.666667 85.333333s218.24 98.218667 218.24 218.24c0 68.608-32.725333 130.986667-82.602667 171.52C782.186667 520.277333 896 663.701333 896 833.621333a93.824 93.824 0 0 1-93.546667 93.546667H178.88A93.824 93.824 0 0 1 85.333333 833.642667C85.333333 663.722667 199.146667 520.32 355.029333 475.093333z m447.402666 389.76c17.152 0 31.189333-14.037333 31.189334-31.189333 0-171.477333-140.309333-311.786667-311.786667-311.786667h-62.378667c-171.477333 0-311.786667 140.309333-311.786666 311.786667 0 17.152 14.037333 31.189333 31.189333 31.189333h623.573333z" fill="#000000" p-id="6109"></path></svg>