<?xml version="1.0" standalone="no"?><!DOCTYPE svg PUBLIC "-//W3C//DTD SVG 1.1//EN" "http://www.w3.org/Graphics/SVG/1.1/DTD/svg11.dtd"><svg t="1710147734510" class="icon" viewBox="0 0 1024 1024" version="1.1" xmlns="http://www.w3.org/2000/svg" p-id="30041" xmlns:xlink="http://www.w3.org/1999/xlink" width="128" height="128"><path d="M495.70182805 150.56493097c-60.0531813 0.05287718-117.69048753 23.65850925-160.52849738 65.74557406a317.05759521 317.05759521 0 0 0-64.10151688 197.23602617v361.59972973h481.58503072V413.54676385a329.65623193 329.65623193 0 0 0-64.21121438-197.23625882c-53.48576747-45.66461179-122.3900447-69.18164994-192.63387199-65.74534146h-0.10993009z m0 361.59996229h-96.42651715l128.4228921-230.10904681v197.23625882h64.2114451l-96.3170523 197.23625884 0.10923225-164.36347085z m288.95115881 361.59972966H271.07158114c-20.92885074 0-64.21121438-11.45065125-64.21121437-32.87278798 0-21.42190411 43.28236366-32.87255537 64.21121437-32.87255533h513.69040532c15.96513828-1.81405089 30.37736448 9.657008 32.191648 25.62168291a29.09231434 29.09231434 0 0 1-0.08557555 7.25110504c-4.65688477 20.27159818-16.98417979 32.87278608-32.10607245 32.87278607h-0.1089996z" p-id="30042" fill="#aaaaaa"></path></svg>
