<?xml version="1.0" standalone="no"?><!DOCTYPE svg PUBLIC "-//W3C//DTD SVG 1.1//EN" "http://www.w3.org/Graphics/SVG/1.1/DTD/svg11.dtd"><svg t="1770105913369" class="icon" viewBox="0 0 1024 1024" version="1.1" xmlns="http://www.w3.org/2000/svg" p-id="5937" xmlns:xlink="http://www.w3.org/1999/xlink" width="128" height="128"><path d="M512.106667 114.005333c136.704 0 247.488 110.997333 247.488 248 0 60.16-21.354667 115.306667-56.917334 158.293334l-0.981333 1.194666a249.28 249.28 0 0 1-44.224 41.770667l0.832 0.341333a371.669333 371.669333 0 0 1 103.68 65.792c0.96 0.853333 1.237333 2.026667 1.024 3.072 4.565333 4.16 9.088 8.490667 13.525333 12.928a373.418667 373.418667 0 0 1 80.426667 119.509334 373.632 373.632 0 0 1 29.376 138.090666 8 8 0 0 1-8 8.192h-59.904a8.042667 8.042667 0 0 1-8-7.786666 298.368 298.368 0 0 0-87.594667-204.309334 296.874667 296.874667 0 0 0-211.690666-87.893333c-56.704 0-111.104 15.701333-158.016 45.098667a8.810667 8.810667 0 0 1-2.432 1.002666c-17.92 11.52-34.773333 25.109333-50.197334 40.597334a298.368 298.368 0 0 0-87.594666 204.309333 8.042667 8.042667 0 0 1-8 7.786667H145.002667a8 8 0 0 1-8-8.192c1.002667-47.786667 10.88-94.293333 29.397333-138.112a373.418667 373.418667 0 0 1 80.405333-119.488 372.629333 372.629333 0 0 1 119.296-80.597334l-0.490666 0.213334-4.949334-3.690667a248.021333 248.021333 0 0 1-96.917333-196.928c0-56.96 19.157333-109.44 51.392-151.317333a246.784 246.784 0 0 1 196.970667-97.877334z m0.085333 75.989334a170.24 170.24 0 0 0-121.386667 50.410666 171.2 171.2 0 0 0-50.304 121.6c0 45.888 17.898667 89.088 50.304 121.6a170.602667 170.602667 0 0 0 121.386667 50.389334c45.802667 0 88.917333-17.898667 121.408-50.389334a171.2 171.2 0 0 0 50.304-121.6c0-45.909333-17.92-89.109333-50.304-121.6a170.432 170.432 0 0 0-121.386667-50.410666z" fill="#000000" p-id="5938"></path></svg>